# xmcd
#
# Track frame offsets:
#	150
#	23619
#	46318
#	66022
#	85780
#	105388
#	126575
#	147623
#	167457
#
# Disc length: 2518 seconds
#
# Revision: 2
# Processed by: cddbd v1.5.2PL0 Copyright (c) Steve Scherf et al.
# Submitted via: EZCDAudioConverter 8.0.2.1
#
DISCID=7209d409
DTITLE=Phạm Thanh Thảo - Vol 05. Thiên Đường Xa Xôi
DYEAR=2008
DGENRE=World Pop
TTITLE0=Chỉ còn ánh mắt
TTITLE1=Đắm say tình đầu
TTITLE2=Thiên Đường Xa Xôi
TTITLE3=Giấc mơ kỷ niệm
TTITLE4=Giá như
TTITLE5=Sân khấu buồn
TTITLE6=Ván đã đóng thuyền
TTITLE7=Ngỡ như hôm nào
TTITLE8=Em chờ anh
EXTD=
EXTT0=
EXTT1=
EXTT2=
EXTT3=
EXTT4=
EXTT5=
EXTT6=
EXTT7=
EXTT8=
PLAYORDER=
